<svg width="24" height="24" fill="none" xmlns="http://www.w3.org/2000/svg"><g opacity=".7"><path d="M23.63 12C23.63 5.578 18.422.37 12 .37 5.578.37.37 5.578.37 12c0 6.422 5.208 11.63 11.63 11.63 6.422 0 11.63-5.208 11.63-11.63z" fill="#E21A1A"/><path d="M13.36 12l3.398-3.947A1.032 1.032 0 0016.65 6.6a1.026 1.026 0 00-1.448.108L12 10.425 8.803 6.713a1.031 1.031 0 00-1.56 1.345L10.64 12l-3.399 3.947a1.032 1.032 0 00.778 1.701c.291 0 .577-.121.778-.356l3.197-3.712 3.197 3.712a1.03 1.03 0 001.449.108c.43-.37.478-1.022.108-1.453L13.358 12z" fill="#fff"/></g></svg>