<svg width="38" height="38" fill="none" xmlns="http://www.w3.org/2000/svg"><g clip-path="url(#clip0)" fill="#000"><path d="M11.578 27.461a.742.742 0 100 1.485.742.742 0 000-1.485z"/><path d="M33.41 14.102l4.373-4.374a.742.742 0 00-.306-1.234l-10.65-3.287A7.406 7.406 0 0019.741 0a7.424 7.424 0 00-6.885 4.648L.521 8.495a.742.742 0 00-.304 1.233l4.489 4.489-2.831 4.718a.742.742 0 00.402 1.086l4.106 1.369v11.415c0 .31.192.586.481.695 2.511.941 11.84 4.44 11.89 4.457a.74.74 0 00.474.007l.007-.002 13.359-4.453a.742.742 0 00.508-.704v-11.72l4.378-1.377a.742.742 0 00.303-1.233l-4.374-4.373zm-6.246-6.68c0-.188-.008-.377-.022-.564l8.72 2.691-3.703 3.704-6.051-2.017a7.444 7.444 0 001.056-3.814zM14.126 5.49a5.94 5.94 0 015.616-4.005 5.926 5.926 0 015.938 5.937 5.87 5.87 0 01-1.323 3.737 5.917 5.917 0 01-4.615 2.2 5.943 5.943 0 01-5.937-5.937c0-.663.108-1.313.32-1.932zM2.135 9.546l10.264-3.2a7.377 7.377 0 00.744 4.473L5.84 13.253 2.135 9.546zm1.489 9.36l2.347-3.912 11.916 3.972-2.346 3.912-11.917-3.972zm14.634 17.281l-10.39-3.896V21.885c8.174 2.71 7.775 2.627 8.003 2.627.255 0 .5-.131.636-.36l1.75-2.918v14.953zM19 17.773L7.988 14.102l5.996-1.999a7.427 7.427 0 005.758 2.741 7.39 7.39 0 005.425-2.357l4.845 1.615L19 17.772zM31.617 32.27l-11.875 3.958V20.67l2.631 3.29c.192.238.51.335.802.244l8.442-2.653V32.27zm-8.402-9.635l-2.97-3.713 11.914-3.971 3.708 3.708-12.652 3.976z"/><path d="M16.292 29.108l-1.65-.619a.742.742 0 00-.522 1.39l1.65.62a.742.742 0 00.522-1.39zm0 3.171l-4.453-1.67a.742.742 0 00-.521 1.39l4.453 1.67a.74.74 0 00.955-.434.742.742 0 00-.434-.956zM23.978 4.67a.742.742 0 00-1.05 0L19 8.6l-.96-.96a.742.742 0 00-1.05 1.05l1.485 1.484c.29.29.76.29 1.05 0l4.453-4.453c.29-.29.29-.76 0-1.05z"/></g><defs><clipPath id="clip0"><path fill="#fff" d="M0 0h38v38H0z"/></clipPath></defs></svg>