<svg width="37" height="18" fill="none" xmlns="http://www.w3.org/2000/svg"><path d="M20.378 0H1.451v1.482h18.927c1.788 0 3.953.727 6.045 1.765-1.07.243-1.866 1.115-1.866 2.154v1.893c0 1.226 1.106 2.223 2.467 2.223h6.21c.37 0 .727-.074 1.052-.212.133.238.206.449.206.622v.247c0 1.766-1.594 3.203-3.554 3.203H1.45v1.481h2.393c.04.444.2.856.45 1.212H1.452v1.482h31.537V16.07h-4.833c.252-.356.411-.768.451-1.212h2.737v-.018c2.678-.188 4.793-2.207 4.793-4.666v-.247C36.136 6.767 26.243 0 20.378 0zm12.856 8.035h-6.21c-.453 0-.822-.333-.822-.741V5.4c0-.409.369-.741.822-.741h1.916c1.768 1.109 3.322 2.333 4.334 3.371-.014 0-.027.004-.04.004zm-26.43 7.802c-.65 0-1.19-.423-1.303-.979h2.606c-.114.556-.654.979-1.303.979zm4.3 0c-.65 0-1.19-.423-1.304-.979h2.606c-.114.556-.654.979-1.303.979zm2.508.233c.25-.356.41-.769.45-1.212h4.326c.04.443.2.856.45 1.212h-5.226zm7.736-.233c-.65 0-1.19-.423-1.304-.979h2.606c-.114.556-.653.979-1.302.979zm4.299 0c-.65 0-1.189-.423-1.304-.979h2.606c-.114.556-.653.979-1.302.979z" fill="#000"/><path d="M19.702 8.94c1.36 0 2.466-.996 2.466-2.222V5.4c0-1.226-1.106-2.224-2.466-2.224H3.095c-1.36 0-2.467.998-2.467 2.224v1.317c0 1.226 1.106 2.223 2.467 2.223h16.607zm-2.48-4.28h2.48c.453 0 .822.332.822.74v1.318c0 .408-.369.74-.822.74h-2.48V4.66zm-5.002 0h3.358v2.799H12.22v-2.8zm-5.002 0h3.358v2.799H7.218v-2.8zM2.272 6.718V5.4c0-.409.37-.741.823-.741h2.479v2.799h-2.48c-.453 0-.822-.333-.822-.741z" fill="#000"/></svg>