<svg width="24" height="24" viewBox="0 0 24 24" fill="none" xmlns="http://www.w3.org/2000/svg">
<g opacity="0.7">
<path d="M23.6297 12C23.6297 5.57817 18.4219 0.370361 12 0.370361C5.57814 0.370361 0.370331 5.57817 0.370331 12C0.370331 18.4219 5.57814 23.6297 12 23.6297C18.4219 23.6297 23.6297 18.4219 23.6297 12Z" fill="#E21A1A"/>
<path d="M13.3594 12.0001L16.7579 8.05319C17.1282 7.62194 17.0813 6.97506 16.6501 6.60006C16.2188 6.22975 15.5719 6.27662 15.2016 6.70787L12.0001 10.4251L8.80318 6.71256C8.43287 6.28131 7.7813 6.23444 7.35005 6.60475C6.9188 6.97506 6.87193 7.62662 7.24224 8.05787L10.6407 12.0001L7.24224 15.9469C6.87193 16.3782 6.9188 17.0251 7.35005 17.4001C7.54224 17.5688 7.7813 17.6485 8.02037 17.6485C8.31099 17.6485 8.59693 17.5266 8.79849 17.2922L11.9954 13.5797L15.1922 17.2922C15.3938 17.5266 15.6844 17.6485 15.9704 17.6485C16.2094 17.6485 16.4485 17.5688 16.6407 17.4001C17.0719 17.0297 17.1188 16.3782 16.7485 15.9469L13.3594 12.0001Z" fill="white"/>
</g>
</svg>
