<svg width="21" height="20" viewBox="0 0 21 20" fill="none" xmlns="http://www.w3.org/2000/svg">
<path d="M4.59801 1.807L5.74501 3.446C4.35119 4.42177 3.30477 5.8165 2.75775 7.4276C2.21073 9.03869 2.19161 10.7822 2.70316 12.4049C3.21472 14.0276 4.2303 15.445 5.60238 16.4511C6.97447 17.4572 8.63158 17.9996 10.333 17.9996C12.0344 17.9996 13.6916 17.4572 15.0636 16.4511C16.4357 15.445 17.4513 14.0276 17.9629 12.4049C18.4744 10.7822 18.4553 9.03869 17.9083 7.4276C17.3613 5.8165 16.3148 4.42177 14.921 3.446L16.068 1.807C17.386 2.72843 18.4619 3.95446 19.2045 5.38087C19.947 6.80728 20.3342 8.39189 20.333 10C20.333 15.523 15.856 20 10.333 20C4.81001 20 0.33301 15.523 0.33301 10C0.331852 8.39189 0.719 6.80728 1.46154 5.38087C2.20408 3.95446 3.28006 2.72843 4.59801 1.807ZM9.33301 10V0H11.333V10H9.33301Z" fill="black" fill-opacity="0.6"/>
</svg>
