<svg width="24" height="22" viewBox="0 0 24 22" fill="none" xmlns="http://www.w3.org/2000/svg">
<path d="M24 7.99999H19.9246L15.6431 0.864013C15.4307 0.509537 14.97 0.393802 14.6141 0.606942C14.2588 0.820082 14.1438 1.28075 14.357 1.63598L18.1754 7.99999H5.82467L9.64306 1.63593C9.8562 1.2807 9.74122 0.820032 9.38599 0.606892C9.02929 0.393752 8.57009 0.509487 8.35695 0.863963L4.07541 7.99994H0V9.49995H1.62781L3.5332 19.6638C3.7324 20.728 4.66257 21.5 5.74514 21.5H18.2549C19.3374 21.5 20.2676 20.728 20.4661 19.6645L22.3721 9.49995H24C24 9.49995 24 7.99999 24 7.99999ZM18.9917 19.3884C18.9258 19.7429 18.616 20 18.2549 20H5.74514C5.38405 20 5.07426 19.7429 5.00761 19.3877L3.15347 9.49995H20.8466L18.9917 19.3884Z" fill="black" fill-opacity="0.4"/>
</svg>
