<svg width="16" height="16" viewBox="0 0 16 16" fill="none" xmlns="http://www.w3.org/2000/svg">
<path fill-rule="evenodd" clip-rule="evenodd" d="M6.66699 12.6666C3.35328 12.6666 0.666992 9.98034 0.666992 6.66663C0.666992 3.35292 3.35328 0.666626 6.66699 0.666626C9.9807 0.666626 12.667 3.35292 12.667 6.66663C12.667 9.98034 9.9807 12.6666 6.66699 12.6666ZM6.66698 11.3333C9.2443 11.3333 11.3336 9.24395 11.3336 6.66663C11.3336 4.0893 9.2443 1.99996 6.66698 1.99996C4.08965 1.99996 2.00031 4.0893 2.00031 6.66663C2.00031 9.24395 4.08965 11.3333 6.66698 11.3333ZM15.1384 15.138C15.3988 14.8777 15.3988 14.4556 15.1384 14.1952L12.4717 11.5286C12.2114 11.2682 11.7893 11.2682 11.5289 11.5286C11.2686 11.7889 11.2686 12.211 11.5289 12.4714L14.1956 15.138C14.456 15.3984 14.8781 15.3984 15.1384 15.138Z" fill="black" fill-opacity="0.5"/>
</svg>
