<svg width="38" height="38" viewBox="0 0 38 38" fill="none" xmlns="http://www.w3.org/2000/svg">
<g clip-path="url(#clip0)">
<path d="M11.5781 27.4612C11.1684 27.4612 10.8359 27.7937 10.8359 28.2034C10.8359 28.6131 11.1684 28.9456 11.5781 28.9456C11.9878 28.9456 12.3203 28.6131 12.3203 28.2034C12.3203 27.7937 11.9878 27.4612 11.5781 27.4612Z" fill="black"/>
<path d="M33.4091 14.1017L37.7827 9.7281C37.9667 9.54411 38.0409 9.27722 37.9783 9.02472C37.9157 8.77216 37.7254 8.57088 37.4768 8.49413L26.8264 5.20699C25.8663 2.1209 23.0127 0.000244141 19.7421 0.000244141C16.7018 0.000244141 13.9828 1.85312 12.8574 4.64819L0.521198 8.4948C0.273233 8.57214 0.0836783 8.77357 0.0215572 9.02584C-0.0405638 9.27803 0.0336549 9.54448 0.217346 9.72817L4.70602 14.2168L1.87502 18.9353C1.75917 19.1283 1.73727 19.3635 1.81535 19.5747C1.89343 19.7858 2.06317 19.9501 2.27677 20.0213L6.38277 21.3899V32.8049C6.38277 33.1142 6.5747 33.3911 6.86438 33.4998C9.37498 34.4412 18.7032 37.9397 18.7533 37.9574C18.9005 38.0093 19.0664 38.0163 19.2281 37.964C19.2303 37.9633 19.2325 37.9628 19.2346 37.9621L32.594 33.509C32.897 33.408 33.1015 33.1243 33.1015 32.8049V21.0842L37.4803 19.7082C37.7279 19.6304 37.9168 19.429 37.9787 19.177C38.0404 18.9249 37.9661 18.6589 37.7826 18.4754L33.4091 14.1017ZM27.164 7.42212C27.164 7.23353 27.1561 7.04538 27.1419 6.85783L35.8622 9.54938L32.1589 13.2526L26.108 11.2358C26.7931 10.0906 27.164 8.76904 27.164 7.42212ZM14.1258 5.49035C14.9497 3.09442 17.2068 1.48462 19.7421 1.48462C22.4735 1.48462 24.8424 3.33207 25.5029 5.97723C25.6202 6.44726 25.6796 6.93339 25.6796 7.42212C25.6796 8.80066 25.2222 10.0927 24.3565 11.1592C23.2226 12.5576 21.5408 13.3596 19.7421 13.3596C17.7979 13.3596 15.9743 12.4053 14.8635 10.8062C14.1708 9.81122 13.8046 8.64094 13.8046 7.42212C13.8046 6.75927 13.9126 6.10934 14.1258 5.49035ZM2.13486 9.54648L12.3993 6.34587C12.3478 6.70049 12.3203 7.05971 12.3203 7.42204C12.3203 8.61704 12.6033 9.77448 13.1429 10.8188L5.84105 13.2526L2.13486 9.54648ZM3.62391 18.9056L5.97071 14.9941L17.8875 18.9664L15.5408 22.8779C14.2683 22.4537 4.98256 19.3584 3.62391 18.9056ZM18.2578 36.1871L7.86715 32.2906V21.8847C16.0423 24.5953 15.6431 24.5125 15.8707 24.5125C16.1259 24.5125 16.3702 24.3805 16.5073 24.1521L18.2578 21.2345V36.1871ZM19 17.7726L7.98768 14.1019L13.9841 12.1032C15.3876 13.8285 17.5004 14.844 19.7421 14.844C21.816 14.844 23.765 13.9906 25.1669 12.4869L30.0122 14.1018L19 17.7726ZM31.6171 32.27L19.7421 36.2283V20.6705L22.3733 23.9592C22.5647 24.1984 22.8833 24.2953 23.1754 24.2036L31.6171 21.5508V32.27ZM23.215 22.6353L20.2445 18.9224L32.1589 14.9509L35.8671 18.6592L23.215 22.6353Z" fill="black"/>
<path d="M16.2918 29.1084L14.6412 28.4894C14.2574 28.3456 13.8296 28.54 13.6856 28.9238C13.5417 29.3076 13.7362 29.7354 14.12 29.8793L15.7706 30.4983C16.1552 30.6424 16.5825 30.4471 16.7262 30.064C16.8701 29.6802 16.6756 29.2523 16.2918 29.1084Z" fill="black"/>
<path d="M16.2921 32.279L11.839 30.6091C11.4552 30.4652 11.0274 30.6596 10.8834 31.0434C10.7394 31.4272 10.934 31.8551 11.3177 31.999L15.7709 33.6689C15.8567 33.7011 15.9448 33.7164 16.0314 33.7164C16.3319 33.7164 16.6147 33.5326 16.7264 33.2346C16.8704 32.8507 16.676 32.4229 16.2921 32.279Z" fill="black"/>
<path d="M23.9776 4.67064C23.6878 4.38074 23.2178 4.38082 22.9279 4.67064L18.9996 8.59904L18.04 7.63947C17.7502 7.34964 17.2802 7.34964 16.9903 7.63947C16.7004 7.92929 16.7005 8.39924 16.9903 8.68914L18.4748 10.1734C18.7646 10.4633 19.2346 10.4633 19.5245 10.1734L23.9776 5.72032C24.2674 5.43049 24.2674 4.96054 23.9776 4.67064Z" fill="black"/>
</g>
<defs>
<clipPath id="clip0">
<rect width="38" height="38" fill="white"/>
</clipPath>
</defs>
</svg>
