<svg width="10" height="10" viewBox="0 0 10 10" fill="none" xmlns="http://www.w3.org/2000/svg">
<path d="M9.9573 0.28382C9.87679 0.0994826 9.73747 0.00730151 9.53865 0.00720215H0.46113C0.262584 0.00720215 0.123058 0.0994826 0.042676 0.28382C-0.0376564 0.477597 -0.00459441 0.64318 0.142011 0.780247L3.63841 4.27655V7.72322C3.63841 7.8463 3.68335 7.95254 3.77314 8.04251L5.58857 9.85789C5.67375 9.94766 5.78009 9.99272 5.90779 9.99272C5.96448 9.99272 6.02354 9.98082 6.08502 9.9572C6.26948 9.87677 6.36174 9.73734 6.36174 9.53877V4.27657L9.85802 0.780272C10.0047 0.643205 10.0377 0.477671 9.9573 0.28382Z" fill="#E21A1A"/>
</svg>
