<svg width="37" height="18" viewBox="0 0 37 18" fill="none" xmlns="http://www.w3.org/2000/svg">
<path d="M20.3782 0H1.45117V1.48205H20.3782C22.1661 1.48205 24.3311 2.20899 26.4226 3.24717C25.3526 3.48998 24.5569 4.36216 24.5569 5.40083V7.2939C24.5569 8.5198 25.6634 9.51698 27.0237 9.51698H33.234C33.6034 9.51698 33.9614 9.44263 34.2865 9.30455C34.4186 9.54316 34.492 9.75386 34.492 9.92651V10.1735C34.492 11.9396 32.8979 13.3765 30.9379 13.3765H1.45117V14.8585H3.84395C3.88396 15.3017 4.04376 15.7139 4.29482 16.0701H1.45117V17.5521H32.9878V16.0701H28.1554C28.4065 15.7139 28.566 15.3017 28.6063 14.8585H31.3433V14.84C34.0206 14.6525 36.1365 12.6335 36.1365 10.1735V9.92651C36.1365 6.76605 26.2434 0 20.3782 0ZM33.2342 8.03493H27.024C26.5707 8.03493 26.2017 7.70245 26.2017 7.2939V5.40059C26.2017 4.99203 26.5707 4.65956 27.024 4.65956H28.9399C30.7085 5.76863 32.2621 6.99329 33.274 8.03097C33.2603 8.03147 33.2474 8.03493 33.2342 8.03493ZM6.80381 15.8369C6.1545 15.8369 5.61482 15.414 5.50053 14.8583H8.10654C7.99252 15.414 7.45312 15.8369 6.80381 15.8369ZM11.1031 15.8369C10.4538 15.8369 9.91414 15.414 9.79985 14.8583H12.4059C12.2918 15.414 11.7522 15.8369 11.1031 15.8369ZM13.6118 16.0699C13.8626 15.7137 14.0224 15.3014 14.0624 14.8583H18.3881C18.4278 15.3014 18.5879 15.7137 18.8389 16.0699H13.6118ZM21.3477 15.8369C20.6983 15.8369 20.1587 15.414 20.0441 14.8583H22.6501C22.5361 15.414 21.9967 15.8369 21.3477 15.8369ZM25.647 15.8369C24.9977 15.8369 24.458 15.414 24.3434 14.8583H26.9494C26.8354 15.414 26.2957 15.8369 25.647 15.8369Z" fill="black"/>
<path d="M19.7016 8.94093C21.0619 8.94093 22.1684 7.94376 22.1684 6.71786V5.40056C22.1684 4.17466 21.0619 3.17749 19.7016 3.17749H3.09471C1.73442 3.17749 0.62793 4.17466 0.62793 5.40056V6.71786C0.62793 7.94376 1.73442 8.94093 3.09471 8.94093H19.7016ZM17.2225 4.65954H19.7016C20.155 4.65954 20.5239 4.99201 20.5239 5.40056V6.71786C20.5239 7.12641 20.155 7.45888 19.7016 7.45888H17.2225V4.65954ZM12.2204 4.65954H15.578V7.45888H12.2204V4.65954ZM7.21834 4.65954H10.5759V7.45888H7.21834V4.65954ZM2.27245 6.71786V5.40056C2.27245 4.99201 2.64137 4.65954 3.09471 4.65954H5.57382V7.45888H3.09471C2.64137 7.45888 2.27245 7.12641 2.27245 6.71786Z" fill="black"/>
</svg>
